<svg width="496" height="496" viewBox="0 0 496 496" fill="none" xmlns="http://www.w3.org/2000/svg">
<path d="M256 478.3C256 483.1 252.8 487.1 248 487.1C243.2 487.1 240 483.1 240 478.3V341.5C240 336.7 243.2 332.7 248 332.7C252.8 332.7 256 336.7 256 341.5V478.3Z" fill="white"/>
<path d="M496 239.9C496 244.7 492.8 247.9 488 247.9H352C347.2 247.9 344 244.7 344 239.9C344 235.1 347.2 231.9 352 231.9H488C492.8 231.9 496 235.1 496 239.9Z" fill="white"/>
<path d="M152 239.9C152 244.7 148.8 247.9 144 247.9H8C3.2 247.9 0 244.7 0 239.9C0 235.1 3.2 231.9 8 231.9H144C148.8 231.9 152 235.1 152 239.9Z" fill="white"/>
<path d="M326.4 172.7C323.2 175.9 317.6 175.9 314.4 172.7C311.2 169.5 311.2 163.9 314.4 160.7L411.2 63.9C414.4 60.7 420 60.7 423.2 63.9C426.4 67.1 426.4 72.7 423.2 75.9L326.4 172.7Z" fill="white"/>
<path d="M84.8004 414.3C81.6004 417.5 76.0004 417.5 72.8004 414.3C69.6004 411.1 69.6004 405.5 72.8004 402.3L169.6 305.5C172.8 302.3 178.4 302.3 181.6 305.5C184.8 308.7 184.8 314.3 181.6 317.5L84.8004 414.3Z" fill="white"/>
<path d="M314.4 317.5C311.2 314.3 311.2 308.7 314.4 305.5C317.6 302.3 323.2 302.3 326.4 305.5L423.2 402.3C426.4 405.5 426.4 411.1 423.2 414.3C420 417.5 414.4 417.5 411.2 414.3L314.4 317.5Z" fill="white"/>
<path d="M72.8004 75.1C69.6004 71.9 69.6004 67.1 72.8004 63.9C76.0004 60.7 81.6004 60.7 84.8004 63.9L181.6 160.7C184.8 163.9 184.8 169.5 181.6 172.7C178.4 175.9 172.8 175.9 169.6 172.7L72.8004 75.1Z" fill="white"/>
<path d="M295.2 147.1C292.8 151.9 288 153.5 284 151.9C280 150.3 277.6 145.5 279.2 140.7L331.2 14.3C332.8 10.3 337.6 7.90001 342.4 9.50001C346.4 11.1 348.8 15.9 347.2 20.7L295.2 147.1Z" fill="white"/>
<path d="M164.8 463.9C163.2 467.9 158.4 470.3 153.6 468.7C149.6 467.1 147.2 462.3 148.8 457.5L200.8 331.1C202.4 327.1 207.2 324.7 212 326.3C216 327.9 218.4 332.7 216.8 337.5L164.8 463.9Z" fill="white"/>
<path d="M340 285.5C336 283.9 333.6 279.1 335.2 274.3C336.8 270.3 341.6 267.9 346.4 269.5L472.8 321.5C476.8 323.1 479.2 327.9 477.6 332.7C476 336.7 471.2 339.1 466.4 337.5L340 285.5Z" fill="white"/>
<path d="M23.1996 155.1C19.1996 153.5 16.7996 148.7 18.3996 143.9C19.9996 139.9 24.7996 137.5 29.5996 139.1L156 191.9C160 193.5 162.4 198.3 160.8 203.1C159.2 207.1 154.4 209.5 149.6 207.9L23.1996 155.1Z" fill="white"/>
<path d="M345.6 207.1C341.6 208.7 336.8 207.1 334.4 202.3C332.8 198.3 334.4 192.7 339.2 191.1L465.6 138.3C469.6 136.7 475.2 138.3 476.8 143.1C478.4 147.1 476.8 152.7 472 154.3L345.6 207.1Z" fill="white"/>
<path d="M30.3996 339.1C26.3996 340.7 20.7996 339.1 19.1996 334.3C17.5996 330.3 19.1996 324.7 23.9996 323.1L150.4 270.3C154.4 268.7 159.2 270.3 161.6 275.1C163.2 279.1 161.6 284.7 156.8 286.3L30.3996 339.1Z" fill="white"/>
<path d="M280 336.7C278.4 332.7 280 327.9 284.8 325.5C288.8 323.9 294.4 325.5 296 330.3L348.8 456.7C350.4 460.7 348.8 466.3 344 467.9C340 469.5 334.4 467.9 332.8 463.1L280 336.7Z" fill="white"/>
<path d="M148 20.7C146.4 16.7 148 11.1 152.8 9.50002C156.8 7.90002 162.4 9.50002 164 14.3L216 140.7C217.6 144.7 216 150.3 211.2 151.9C207.2 153.5 201.6 151.9 200 147.1L148 20.7Z" fill="white"/>
</svg>
