<svg width="50" height="51" viewBox="0 0 50 51" fill="none" xmlns="http://www.w3.org/2000/svg">
<g clip-path="url(#clip0)">
<path d="M5.67742 29.3321C7.28488 29.3321 8.73686 30.2973 9.35864 31.7801C11.9259 37.8967 17.9626 42.2074 25.0001 42.2074C28.8789 42.2074 32.4349 40.8779 35.2858 38.6729L33.0513 38.327C32.288 38.2087 31.6942 37.6031 31.5908 36.8377C31.4871 36.0728 31.8994 35.3307 32.6033 35.0144L44.8918 29.486C45.4304 29.2441 46.0545 29.2906 46.5509 29.6096C47.0466 29.9292 47.3477 30.4776 47.351 31.0677L47.4147 44.6078C47.419 45.3781 46.9169 46.0593 46.1808 46.2838C45.4434 46.5083 44.6469 46.2234 44.2203 45.5822L42.5266 43.0367C38.0107 47.482 31.8229 50.23 25.0001 50.23C14.655 50.23 5.76055 43.9124 1.96706 34.9333C1.4402 33.6887 1.573 32.2636 2.31895 31.1377C3.0649 30.0113 4.3258 29.3321 5.67742 29.3321Z" fill="white"/>
<path d="M47.6814 19.3222C46.9354 20.4486 45.6744 21.1277 44.3229 21.1277C42.7154 21.1277 41.2634 20.1625 40.6416 18.6798C38.0743 12.5632 32.0376 8.25247 25.0001 8.25247C21.1213 8.25247 17.5653 9.58192 14.7142 11.7869L16.9489 12.1327C17.7121 12.251 18.3059 12.8567 18.4095 13.6221C18.5131 14.3869 18.1008 15.1292 17.397 15.4455L5.10852 20.9739C4.56976 21.2156 3.94582 21.1693 3.44924 20.8502C2.95368 20.5306 2.65249 19.9822 2.64931 19.3923L2.58548 5.85217C2.58117 5.0819 3.08319 4.4007 3.81939 4.17617C4.55672 3.95163 5.35337 4.23671 5.77986 4.87799L7.47362 7.4235C11.9894 2.97797 18.1773 0.229987 25 0.229987C35.3454 0.229987 44.2395 6.54743 48.0329 15.5265C48.5601 16.7711 48.4273 18.1961 47.6814 19.3222Z" fill="white"/>
</g>
<defs>
<clipPath id="clip0">
<rect width="50" height="50" transform="matrix(1 0 0 -1 0 50.23)" fill="white"/>
</clipPath>
</defs>
</svg>
